<?xml version="1.0" standalone="no"?>
<!DOCTYPE svg PUBLIC "-//W3C//DTD SVG 20010904//EN"
 "http://www.w3.org/TR/2001/REC-SVG-20010904/DTD/svg10.dtd">
<svg version="1.0" xmlns="http://www.w3.org/2000/svg"
 width="400.000000pt" height="400.000000pt" viewBox="0 0 400.000000 400.000000"
 preserveAspectRatio="xMidYMid meet">

<g transform="translate(0.000000,400.000000) scale(0.100000,-0.100000)"
fill="#000000" stroke="none">
<path d="M0 2000 l0 -2000 2000 0 2000 0 0 2000 0 2000 -2000 0 -2000 0 0
-2000z m2036 1276 c256 -64 450 -172 630 -351 229 -228 360 -511 382 -825 l7
-95 210 -5 c236 -6 256 -11 299 -78 37 -56 41 -98 17 -186 -126 -458 -725
-919 -1364 -1048 -97 -20 -143 -23 -337 -23 -199 0 -237 3 -330 23 -184 41
-369 123 -535 236 -110 74 -291 252 -367 361 -277 396 -315 873 -101 1300 189
378 539 634 973 711 123 22 391 12 516 -20z"/>
<path d="M966 2420 c-34 -11 -82 -54 -102 -92 -22 -42 -20 -387 2 -435 42 -87
161 -120 248 -69 75 44 86 79 86 287 0 147 -3 180 -19 214 -38 84 -125 122
-215 95z"/>
<path d="M1563 2411 c-26 -12 -52 -35 -70 -62 -27 -42 -28 -46 -31 -209 -4
-183 4 -232 44 -280 36 -42 74 -60 128 -60 76 0 130 31 164 95 13 25 16 62 14
216 0 102 -5 196 -10 210 -14 36 -57 78 -97 95 -46 19 -91 17 -142 -5z"/>
</g>
</svg>
